<?xml version="1.0" encoding="UTF-8" standalone="no"?>
<!-- Generator: Adobe Illustrator 13.0.2, SVG Export Plug-In . SVG Version: 6.00 Build 14948)  -->
<svg id="svg2" xmlns:rdf="http://www.w3.org/1999/02/22-rdf-syntax-ns#" xmlns="http://www.w3.org/2000/svg" enable-background="new 30.5 62.5 625 388" xml:space="preserve" viewBox="30.5 62.5 606.026 375.14012" height="375.1401" width="606.026" version="1.1" y="0px" x="0px" xmlns:cc="http://creativecommons.org/ns#" xmlns:dc="http://purl.org/dc/elements/1.1/"><metadata id="metadata158"><rdf:RDF><cc:Work rdf:about=""><dc:format>image/svg+xml</dc:format><dc:type rdf:resource="http://purl.org/dc/dcmitype/StillImage"/><dc:title/></cc:Work></rdf:RDF></metadata><g id="layer1" transform="translate(-18.7041 -418)"><path id="SBCTEA" d="m392 644h-97.5v35h-125v35h-67.5v70h545v-262.5h-75v25h-137.5v50h-42.5v47.5z" fill="#800080"/><path id="_x31_976act" d="m392 644h-97.5v35h-125v35h-67.5v70h520v-212.5h-50v25h-180v47.5z" fill="#00f"/><path id="_x36_2-74acts" d="m392 644h-97.5v35h-125v35h-67.5v70h470v-140h-150l-30-30v30z" fill="#008000"/><path id="_x31_909act" d="m102 714v70h470v-140h-277.5v35h-125v35h-67.5z" fill="#ffe696"/><path id="_x31_831act" d="m102 714v70h297.5v-105h-230v35h-67.5z" fill="#ff7f00"/><path id="_x31_790act" d="m102 714v70h102.5v-70h-102.5z" fill="#f00"/><g id="g2553" stroke="#000" fill="none" transform="translate(7,409)"><path id="path2385" d="m95 75h545"/><path id="path2387" d="m95 100h545"/><path id="path2389" d="m95 125h545"/><path id="path2391" d="m95 150h545"/><path id="path2393" d="m95 175h545"/><path id="path2395" d="m95 200h545"/><path id="path2397" d="m95 225h545"/><path id="path2399" d="m95 250h545"/><path id="path2401" d="m95 275h545"/><path id="path2403" d="m95 300h545"/><path id="path2405" d="m95 325h545"/><path id="path2407" d="m95 350h545"/><path id="path2409" d="m95 375h545"/></g><g id="g2568" stroke="#000" fill="none" transform="translate(7,409)"><path id="path2411" d="m320 375v-300"/><path id="path2413" d="m345 375v-300"/><path id="path2415" d="m370 375v-300"/><path id="path2417" d="m395 375v-300"/><path id="path2419" d="m420 375v-300"/><path id="path2421" d="m295 375v-300"/><path id="path2423" d="m270 375v-300"/><path id="path2425" d="m245 375v-300"/><path id="path2427" d="m220 375v-300"/><path id="path2429" d="m195 375v-300"/><path id="path2431" d="m170 375v-300"/><path id="path2433" d="m145 375v-300"/><path id="path2435" d="m120 375v-300"/><path id="path2437" d="m95 375v-300"/><path id="path2439" d="m445 375v-300"/><path id="path2441" d="m470 375v-300"/><path id="path2443" d="m495 375v-300"/><path id="path2445" d="m520 375v-300"/><path id="path2447" d="m545 375v-300"/><path id="path2449" d="m570 375v-300"/><path id="path2451" d="m595 375v-300"/><path id="path2453" d="m620 375v-300"/><path id="path2455" d="m640 375v-300"/></g><text id="text56" font-size="17.5px" y="849" x="254.9155" font-family="BitstreamVeraSans-Bold">Year Copyright Term Began</text>
<text id="text58" font-size="17.5px" transform="rotate(-90)" y="65.5" x="-817.14258" font-family="BitstreamVeraSans-Bold">Duration of Copyright Term (years)</text>
<g id="g4408" font-size="16.25px" font-family="BitstreamVeraSans-Roman" transform="translate(5,409)"><text id="text63" y="105" x="64.455101">110</text>
<text id="text65" y="130" x="64.455101">100</text>
<text id="text67" y="155" x="72.089798">90</text>
<text id="text69" y="180" x="72.089798">80</text>
<text id="text71" y="205" x="72.089798">70</text>
<text id="text73" y="230" x="72.089798">60</text>
<text id="text75" y="255" x="72.089798">50</text>
<text id="text77" y="280" x="72.089798">40</text>
<text id="text79" y="305" x="72.089798">30</text>
<text id="text81" y="330" x="72.089798">20</text>
<text id="text83" y="355" x="72.089798">10</text>
<text id="text85" y="380" x="79.724602">0</text>
</g><g id="g4370" font-size="16.25px" font-family="BitstreamVeraSans-Roman" transform="translate(7,415)"><text id="text88" transform="rotate(-90)" y="100" x="-412.82031">1790</text>
<text id="text90" transform="rotate(-90)" y="125" x="-412.82031">1800</text>
<text id="text92" transform="rotate(-90)" y="150" x="-412.82031">1810</text>
<text id="text94" transform="rotate(-90)" y="175" x="-412.82031">1820</text>
<text id="text96" transform="rotate(-90)" y="200" x="-412.82031">1830</text>
<text id="text98" transform="rotate(-90)" y="225" x="-412.82031">1840</text>
<text id="text100" transform="rotate(-90)" y="250" x="-412.82031">1850</text>
<text id="text102" transform="rotate(-90)" y="275" x="-412.82031">1860</text>
<text id="text104" transform="rotate(-90)" y="300" x="-412.82031">1870</text>
<text id="text106" transform="rotate(-90)" y="325" x="-412.82031">1880</text>
<text id="text108" transform="rotate(-90)" y="350" x="-412.82031">1890</text>
<text id="text110" transform="rotate(-90)" y="375" x="-412.82031">1900</text>
<text id="text112" transform="rotate(-90)" y="400" x="-412.82031">1910</text>
<text id="text114" transform="rotate(-90)" y="425" x="-412.82031">1920</text>
<text id="text116" transform="rotate(-90)" y="450" x="-412.82031">1930</text>
<text id="text118" transform="rotate(-90)" y="475" x="-412.82031">1940</text>
<text id="text120" transform="rotate(-90)" y="500" x="-412.82031">1950</text>
<text id="text122" transform="rotate(-90)" y="525" x="-412.82031">1960</text>
<text id="text124" transform="rotate(-90)" y="550" x="-412.82031">1970</text>
<text id="text126" transform="rotate(-90)" y="575" x="-412.82031">1980</text>
<text id="text128" transform="rotate(-90)" y="600" x="-412.82031">1990</text>
<text id="text130" transform="rotate(-90)" y="625" x="-412.82031">2000</text>
<text id="text132" transform="rotate(-90)" y="645" x="-412.82031">2008</text>
</g><polygon id="rect2691" transform="matrix(1.164815 0 0 .9289508 -10.00224 616.3209)" stroke="#000" points="307.047 -138.051 307.047 1.894 103 1.946 103 -138" stroke-width="1.0197" fill="#fff"/><g id="g3483" stroke="#000" transform="translate(2.952867 622.1057)"><rect id="rect3463" height="10" width="10" y="-123" x="118" fill="#800080"/><rect id="rect3465" height="10" width="10" y="-103" x="118" fill="#00f"/><rect id="rect3467" height="10" width="10" y="-83" x="118" fill="#008000"/><rect id="rect3469" height="10" width="10" y="-63" x="118" fill="#ffe696"/><rect id="rect3471" height="10" width="10" y="-43" x="118" fill="#ff7f00"/><rect id="rect3475" height="10" width="10" y="-23" x="118" fill="#f00"/></g><g font-size="15px" font-family="BitstreamVeraSans-Roman"><text id="text144" y="509.10547" x="135.95267">1998 Act (Sonny Bono Act)</text>
<text id="text146" y="529.10547" x="135.95267">1976 Act</text>
<text id="text148" y="549.10547" x="135.95267">1962-74 Acts</text>
<text id="text150" y="569.10547" x="135.95267">1909 Act</text>
<text id="text152" y="609.10547" x="135.95267">1790 Act</text>
<text id="text154" y="589.10547" x="135.95267">1831 Act</text>
</g></g></svg>
